<svg version="1.1" xmlns="http://www.w3.org/2000/svg" viewBox="0 0 1568.0000000000002 944.2222260369194" width="1568.0000000000002" height="944.2222260369194" filter="invert(93%) hue-rotate(180deg)">
  <!-- svg-source:excalidraw -->
  
  <defs>
    <style class="style-fonts">
      @font-face {
        font-family: "Virgil";
        src: url("https://excalidraw.com/Virgil.woff2");
      }
      @font-face {
        font-family: "Cascadia";
        src: url("https://excalidraw.com/Cascadia.woff2");
      }
      @font-face {
        font-family: "Assistant";
        src: url("https://excalidraw.com/Assistant-Regular.woff2");
      }
    </style>
    
  </defs>
  <rect x="0" y="0" width="1568.0000000000002" height="944.2222260369194" fill="#ffffff"></rect><g stroke-linecap="round" transform="translate(10 210.22222603691938) rotate(0 774.0000000000001 362)"><path d="M32 0 C477.59 -6.27, 924.02 -3.9, 1516 0 M1516 0 C1534.83 2.35, 1547.61 13.27, 1548 32 M1548 32 C1546.77 167.68, 1547.08 307.47, 1548 692 M1548 692 C1550.49 711.71, 1539.48 727.63, 1516 724 M1516 724 C1162.44 730.75, 808.78 729.55, 32 724 M32 724 C10.51 727.71, -1.74 713.13, 0 692 M0 692 C-1.04 466.34, -1.22 239.88, 0 32 M0 32 C3.15 10.96, 12.27 1.5, 32 0" stroke="#1e1e1e" stroke-width="2.5" fill="none" stroke-dasharray="1.5 8"></path></g><g stroke-linecap="round" transform="translate(100.92885691446816 353.8947437458154) rotate(0 124.01438848920861 74.72661870503597)"><path d="M32 0 C89.07 4.72, 133.5 -5.08, 216.03 0 C242.11 1.76, 248.89 15.87, 248.03 32 C245.03 59.28, 243.53 88.69, 248.03 117.45 C244.01 135.98, 240.35 152.08, 216.03 149.45 C164.08 153.02, 122.8 159.09, 32 149.45 C6.91 154.63, -3.09 135.88, 0 117.45 C3.32 80.85, 1.2 47.67, 0 32 C0.19 11.96, 11.95 -4.97, 32 0" stroke="none" stroke-width="0" fill="#a5d8ff"></path><path d="M32 0 C97.38 5.7, 156.07 4.78, 216.03 0 M32 0 C85.39 2.98, 137.34 1.76, 216.03 0 M216.03 0 C235.18 3.71, 250.52 9.05, 248.03 32 M216.03 0 C239.83 4.18, 245.2 11.07, 248.03 32 M248.03 32 C249.35 61.87, 248.15 94.78, 248.03 117.45 M248.03 32 C248.48 52.5, 248.41 76.91, 248.03 117.45 M248.03 117.45 C248.5 141.04, 240.51 149.75, 216.03 149.45 M248.03 117.45 C249.87 140.51, 233.22 148.1, 216.03 149.45 M216.03 149.45 C170.23 147.52, 120 147.78, 32 149.45 M216.03 149.45 C160.61 151.74, 101.87 149.27, 32 149.45 M32 149.45 C10.2 148.15, -2.46 141.85, 0 117.45 M32 149.45 C8.07 145.07, -3.18 136.9, 0 117.45 M0 117.45 C-2.53 88.27, -2.25 53.58, 0 32 M0 117.45 C0.96 93.59, 1.46 65.12, 0 32 M0 32 C1.58 8.71, 13.8 -2.31, 32 0 M0 32 C-1 6.62, 15.26 1.44, 32 0" stroke="#1e1e1e" stroke-width="2" fill="none"></path></g><g transform="translate(172.26419114342286 410.07220177938854) rotate(0 52.679054260253906 18.54916067146283)"><text x="52.679054260253906" y="25.9985035971223" font-family="Virgil, Segoe UI Emoji" font-size="29.678657074340524px" fill="#1e1e1e" text-anchor="middle" style="white-space: pre;" direction="ltr" dominant-baseline="alphabetic">indexing</text></g><g stroke-linecap="round" transform="translate(1062.5555555555552 675.6111047532825) rotate(0 117 70.5)"><path d="M32 0 C82.85 -8.99, 143.23 -2.83, 202 0 C224.19 5.21, 237.24 8.64, 234 32 C229.55 44.49, 229.17 63.13, 234 109 C236.98 132.96, 220.94 140.07, 202 141 C136.91 144.97, 65.19 145.21, 32 141 C7.57 138.09, 4.39 127.97, 0 109 C-0.7 73.58, -0.7 49.72, 0 32 C1.29 5.7, 7.07 -4.75, 32 0" stroke="none" stroke-width="0" fill="#a5d8ff"></path><path d="M32 0 C69.3 -0.43, 111.22 -0.18, 202 0 M32 0 C65.8 -0.93, 101.48 2.57, 202 0 M202 0 C225.83 -1.62, 236.15 14.3, 234 32 M202 0 C220.5 0.41, 236.1 11.41, 234 32 M234 32 C234.25 65.24, 232.67 90.86, 234 109 M234 32 C234.88 59.49, 234.65 85.98, 234 109 M234 109 C237.15 130.63, 224.94 142.5, 202 141 M234 109 C229.86 128.98, 221.9 138.9, 202 141 M202 141 C148.37 135.45, 89.1 141.8, 32 141 M202 141 C141.61 140.16, 84.21 141.37, 32 141 M32 141 C8.21 144.06, -2.26 126.52, 0 109 M32 141 C7.49 139.11, 2.37 130.96, 0 109 M0 109 C-1.14 86.15, 0.89 68.01, 0 32 M0 109 C0.44 80.8, 1 53.74, 0 32 M0 32 C3.13 8.36, 9.8 -3.52, 32 0 M0 32 C4.59 12.1, 9.85 3.8, 32 0" stroke="#1e1e1e" stroke-width="2" fill="none"></path></g><g transform="translate(1120.881582472059 728.6111047532825) rotate(0 58.673973083496094 17.5)"><text x="58.673973083496094" y="24.528" font-family="Virgil, Segoe UI Emoji" font-size="28px" fill="#1e1e1e" text-anchor="middle" style="white-space: pre;" direction="ltr" dominant-baseline="alphabetic">retrieval</text></g><g stroke-linecap="round" transform="translate(503.52038369304523 652.4196571484266) rotate(0 110.23501199040766 93.80575539568343)"><path d="M176.66 17.73 C187.76 22.9, 195.27 33.62, 202.59 43.71 C209.9 53.8, 218.03 66.78, 220.54 78.25 C223.06 89.72, 220.19 101.87, 217.69 112.55 C215.18 123.23, 212.38 132.78, 205.5 142.33 C198.62 151.88, 187.31 162.59, 176.43 169.84 C165.55 177.09, 152.95 182.91, 140.22 185.82 C127.5 188.74, 113.35 188.4, 100.07 187.34 C86.79 186.27, 72.65 184.56, 60.56 179.43 C48.47 174.31, 36.29 165.17, 27.55 156.57 C18.81 147.97, 12.95 138.27, 8.12 127.81 C3.29 117.36, -1.52 105.18, -1.42 93.83 C-1.33 82.49, 3.42 70.07, 8.7 59.74 C13.98 49.42, 21.41 40.07, 30.25 31.86 C39.09 23.64, 49.87 15.99, 61.71 10.44 C73.56 4.89, 88.23 -0.21, 101.33 -1.44 C114.43 -2.67, 123.89 -3.99, 140.31 3.08 C156.74 10.15, 187.36 30.56, 199.88 40.98 C212.41 51.4, 216.58 65.05, 215.47 65.59 M117.86 1.06 C129.71 -0.48, 141.67 1.27, 153.48 5.64 C165.29 10, 179.34 18.33, 188.72 27.26 C198.09 36.18, 204.74 49.12, 209.74 59.19 C214.74 69.27, 218.29 76.99, 218.71 87.69 C219.13 98.39, 216.1 112.18, 212.28 123.4 C208.46 134.61, 204.29 146.43, 195.78 154.96 C187.27 163.48, 173.02 169.48, 161.2 174.54 C149.38 179.61, 138.24 183.62, 124.86 185.34 C111.48 187.06, 94.28 187.07, 80.93 184.87 C67.57 182.67, 55.2 178.2, 44.74 172.16 C34.29 166.12, 25.13 158.52, 18.18 148.6 C11.22 138.69, 5.62 124.37, 3 112.65 C0.37 100.94, 0.11 89.51, 2.42 78.32 C4.74 67.12, 10.62 55.5, 16.9 45.5 C23.19 35.5, 29.72 24.99, 40.13 18.32 C50.55 11.65, 66.74 8.08, 79.39 5.47 C92.04 2.85, 109.81 2.75, 116.05 2.63 C122.29 2.52, 116.39 3.84, 116.85 4.77" stroke="#1e1e1e" stroke-width="2" fill="none"></path></g><g transform="translate(587.6590260514607 733.1453263098795) rotate(0 26.14844512939453 13.249400479616298)"><text x="26.14844512939453" y="18.570359712230214" font-family="Virgil, Segoe UI Emoji" font-size="21.199040767386087px" fill="#1e1e1e" text-anchor="middle" style="white-space: pre;" direction="ltr" dominant-baseline="alphabetic">data</text></g><g stroke-linecap="round"><g transform="translate(1042.5555555555552 713.3630035142592) rotate(0 -150.25426916334868 3.3682659128029684)"><path d="M1.82 -2.59 C-48.46 -1.54, -249.42 4.87, -300.08 6.02 M-0.63 2.18 C-51.44 3.68, -253.03 8.66, -302.33 9.32" stroke="#1e1e1e" stroke-width="2" fill="none"></path></g><g transform="translate(1042.5555555555552 713.3630035142592) rotate(0 -150.25426916334868 3.3682659128029684)"><path d="M-280.87 0.29 C-287.82 2.21, -297.41 5.84, -300.48 10.57 M-279.63 0.39 C-284.56 3.02, -290.23 5.46, -302.25 9.29" stroke="#1e1e1e" stroke-width="2" fill="none"></path></g><g transform="translate(1042.5555555555552 713.3630035142592) rotate(0 -150.25426916334868 3.3682659128029684)"><path d="M-280.52 17.39 C-287.58 13.17, -297.29 10.67, -300.48 10.57 M-279.29 17.49 C-284.4 15.68, -290.16 13.69, -302.25 9.29" stroke="#1e1e1e" stroke-width="2" fill="none"></path></g></g><mask></mask><g stroke-linecap="round"><g transform="translate(743.7047530698071 771.3812746437283) rotate(0 152.28503926431335 -1.3697869434757592)"><path d="M-0.02 -0.59 C50.14 -0.45, 252.22 -2.36, 302.77 -1.74 M-3.48 -3.38 C47.39 -2.73, 257.36 0.24, 308.05 0.64" stroke="#1e1e1e" stroke-width="2" fill="none"></path></g><g transform="translate(743.7047530698071 771.3812746437283) rotate(0 152.28503926431335 -1.3697869434757592)"><path d="M284.04 7.44 C291.5 4.81, 303.62 4.12, 307.24 1.72 M284.92 9.08 C294.57 5.93, 303.03 2.39, 308.98 0.21" stroke="#1e1e1e" stroke-width="2" fill="none"></path></g><g transform="translate(743.7047530698071 771.3812746437283) rotate(0 152.28503926431335 -1.3697869434757592)"><path d="M284.24 -9.66 C291.47 -6.05, 303.52 -0.49, 307.24 1.72 M285.11 -8.02 C294.58 -4.49, 302.97 -1.34, 308.98 0.21" stroke="#1e1e1e" stroke-width="2" fill="none"></path></g></g><mask></mask><g stroke-linecap="round" transform="translate(1002.1111111111109 10) rotate(0 95.5 77)"><path d="M45.15 12.24 C54.91 5.68, 72.26 0.73, 85.27 -0.62 C98.28 -1.96, 111.06 0.69, 123.2 4.18 C135.35 7.67, 148.3 13.65, 158.16 20.34 C168.03 27.03, 176.95 34.85, 182.4 44.32 C187.86 53.8, 190.85 66.79, 190.9 77.18 C190.95 87.57, 187.55 97.27, 182.7 106.68 C177.85 116.08, 171.32 126.37, 161.8 133.62 C152.27 140.87, 137.75 146.78, 125.56 150.17 C113.36 153.56, 101.13 154.65, 88.65 153.97 C76.18 153.29, 62.19 151.01, 50.69 146.08 C39.19 141.15, 27.53 133.28, 19.63 124.41 C11.73 115.53, 6.38 103.24, 3.29 92.84 C0.2 82.44, -1.05 71.86, 1.09 62.01 C3.23 52.16, 7.31 42.96, 16.12 33.76 C24.93 24.57, 46.51 11.47, 53.94 6.84 C61.37 2.21, 60.24 4.31, 60.68 6 M135.25 5.12 C146.66 8.14, 160.15 17.87, 168.53 26.74 C176.92 35.61, 182.25 48.61, 185.55 58.34 C188.85 68.07, 190.21 75.39, 188.33 85.14 C186.44 94.88, 180.59 107.43, 174.23 116.81 C167.87 126.18, 160.84 135.67, 150.16 141.4 C139.48 147.12, 123.07 149.7, 110.16 151.15 C97.25 152.61, 85.47 152.4, 72.7 150.13 C59.94 147.85, 44.22 143.45, 33.58 137.5 C22.94 131.56, 14.49 123.27, 8.86 114.48 C3.22 105.69, 0.24 95.71, -0.2 84.76 C-0.64 73.82, 1.49 59.3, 6.23 48.82 C10.97 38.33, 18.87 29.35, 28.23 21.84 C37.59 14.33, 50.68 7.84, 62.4 3.77 C74.12 -0.3, 85.48 -3.43, 98.53 -2.58 C111.58 -1.73, 134.38 6.46, 140.67 8.85 C146.97 11.25, 137.44 10.32, 136.3 11.78" stroke="#1e1e1e" stroke-width="2" fill="none"></path></g><g transform="translate(1046.1024635566237 74.55277784863586) rotate(0 51.479949951171875 12.5)"><text x="51.479949951171875" y="17.52" font-family="Virgil, Segoe UI Emoji" font-size="20px" fill="#1e1e1e" text-anchor="middle" style="white-space: pre;" direction="ltr" dominant-baseline="alphabetic">user query</text></g><g stroke-linecap="round" transform="translate(1067.333333333333 317.49999999999994) rotate(0 117 70.5)"><path d="M32 0 C73.54 -1.82, 117.2 -2.21, 202 0 C220.52 2.98, 236.63 8.27, 234 32 C234.83 55.26, 240.9 71.88, 234 109 C239.18 127.24, 220.42 145.39, 202 141 C153.91 143.15, 109.24 143.15, 32 141 C11.96 142.29, -4.97 126.73, 0 109 C0.83 88.1, -0.26 75.16, 0 32 C2.5 8.04, 7.55 -4.17, 32 0" stroke="none" stroke-width="0" fill="#a5d8ff"></path><path d="M32 0 C74.11 4.35, 107.17 4, 202 0 M32 0 C99.34 0.02, 166.54 0.22, 202 0 M202 0 C223.67 -0.15, 237.71 8.93, 234 32 M202 0 C223.1 1.99, 235.23 7.39, 234 32 M234 32 C237.08 60.06, 235.12 83.43, 234 109 M234 32 C231.99 57.07, 233.27 85.82, 234 109 M234 109 C230.86 133.27, 220.45 141.23, 202 141 M234 109 C237.99 132.44, 225.29 142.38, 202 141 M202 141 C163.45 138.15, 130.56 138.35, 32 141 M202 141 C168.22 139.87, 131.33 138.45, 32 141 M32 141 C11.52 138.98, -3.8 130.33, 0 109 M32 141 C7.35 143.41, -0.63 134.43, 0 109 M0 109 C-1.15 88.14, -1.49 60.14, 0 32 M0 109 C-1.89 94.32, -1.27 78.17, 0 32 M0 32 C3.86 8.96, 7.52 3.39, 32 0 M0 32 C1.45 11.37, 14.94 2.66, 32 0" stroke="#1e1e1e" stroke-width="2" fill="none"></path></g><g transform="translate(1114.83736928304 370.49999999999994) rotate(0 69.49596405029297 17.5)"><text x="69.49596405029297" y="24.528" font-family="Virgil, Segoe UI Emoji" font-size="28px" fill="#1e1e1e" text-anchor="middle" style="white-space: pre;" direction="ltr" dominant-baseline="alphabetic">generation</text></g><g stroke-linecap="round" transform="translate(1337.1111111111109 19.000006357828738) rotate(0 93.5 87.5)"><path d="M117.5 22 C127.99 34.38, 144.53 40.56, 163.5 66 M117.5 22 C133.78 35.97, 146.48 48.96, 163.5 66 M163.5 66 C190.71 86.26, 186.79 89.73, 163.5 110 M163.5 66 C188.23 84.72, 188.08 90.46, 163.5 110 M163.5 110 C149.94 125.74, 136.79 133.94, 117.5 153 M163.5 110 C151.44 123.05, 136.78 134.31, 117.5 153 M117.5 153 C91.12 175.23, 97.47 176.83, 70.5 153 M117.5 153 C95.95 176.38, 90.28 170.72, 70.5 153 M70.5 153 C60.29 137.76, 39.86 124.86, 23.5 110 M70.5 153 C56.84 140.84, 46.15 129.85, 23.5 110 M23.5 110 C-3.8 88, -2.88 90.1, 23.5 66 M23.5 110 C-0.63 92.1, 0.54 85.57, 23.5 66 M23.5 66 C37.58 49.46, 52.33 39.38, 70.5 22 M23.5 66 C39.49 52.48, 56.72 35.22, 70.5 22 M70.5 22 C90.86 3.39, 95.26 0.61, 117.5 22 M70.5 22 C98.28 2.66, 92.33 -3.66, 117.5 22" stroke="#1e1e1e" stroke-width="2" fill="none"></path></g><g transform="translate(1390.771152920193 69.25000635782874) rotate(0 40.08995819091797 37.5)"><text x="40.08995819091797" y="17.52" font-family="Virgil, Segoe UI Emoji" font-size="20px" fill="#1e1e1e" text-anchor="middle" style="white-space: pre;" direction="ltr" dominant-baseline="alphabetic">llm </text><text x="40.08995819091797" y="42.519999999999996" font-family="Virgil, Segoe UI Emoji" font-size="20px" fill="#1e1e1e" text-anchor="middle" style="white-space: pre;" direction="ltr" dominant-baseline="alphabetic">answers</text><text x="40.08995819091797" y="67.52" font-family="Virgil, Segoe UI Emoji" font-size="20px" fill="#1e1e1e" text-anchor="middle" style="white-space: pre;" direction="ltr" dominant-baseline="alphabetic">question</text></g><g stroke-linecap="round"><g transform="translate(1046.8375521763428 165.1535424746868) rotate(0 18.532764294869708 71.82239207512151)"><path d="M1.5 2.54 C6.67 25.8, 27.02 115.75, 32.72 138.43 M-1.12 1.45 C4.79 25.32, 32.23 118.77, 38.19 142.19" stroke="#1e1e1e" stroke-width="2" fill="none"></path></g><g transform="translate(1046.8375521763428 165.1535424746868) rotate(0 18.532764294869708 71.82239207512151)"><path d="M25.51 120.59 C29.04 130.04, 34.44 138.18, 38.71 142.36 M23.64 122.25 C28.44 127.21, 32.71 134.49, 38.31 142.76" stroke="#1e1e1e" stroke-width="2" fill="none"></path></g><g transform="translate(1046.8375521763428 165.1535424746868) rotate(0 18.532764294869708 71.82239207512151)"><path d="M41.99 116.04 C39.53 127.22, 38.96 137.01, 38.71 142.36 M40.13 117.7 C40.09 123.93, 39.47 132.56, 38.31 142.76" stroke="#1e1e1e" stroke-width="2" fill="none"></path></g></g><mask></mask><g stroke-linecap="round"><g transform="translate(1100.4816962174036 472.3333396911621) rotate(0 3.7552318098172464 96.90398674844043)"><path d="M-1.72 0.25 C-0.44 32.47, 7.23 163.24, 9.23 195.89 M2.54 -2.09 C3.43 30.43, 6.49 157.5, 7.69 191.13" stroke="#1e1e1e" stroke-width="2" fill="none"></path></g><g transform="translate(1100.4816962174036 472.3333396911621) rotate(0 3.7552318098172464 96.90398674844043)"><path d="M-1.37 168.81 C2.25 177.84, 5.72 184.55, 7.61 192.98 M-1.28 167.18 C1.05 174.35, 3.3 180.34, 8.48 191.2" stroke="#1e1e1e" stroke-width="2" fill="none"></path></g><g transform="translate(1100.4816962174036 472.3333396911621) rotate(0 3.7552318098172464 96.90398674844043)"><path d="M15.73 168.31 C13.31 177.41, 10.73 184.3, 7.61 192.98 M15.82 166.68 C13.76 174.05, 11.62 180.17, 8.48 191.2" stroke="#1e1e1e" stroke-width="2" fill="none"></path></g></g><mask></mask><g stroke-linecap="round"><g transform="translate(1241.6474143521896 661.7777841356067) rotate(0 -3.852091275050384 -97.4351487031414)"><path d="M1.28 0.45 C0.23 -31.38, -6.11 -158.71, -8.01 -190.71 M-1.47 -1.77 C-2.53 -34.51, -7.26 -164.2, -8.98 -195.32" stroke="#1e1e1e" stroke-width="2" fill="none"></path></g><g transform="translate(1241.6474143521896 661.7777841356067) rotate(0 -3.852091275050384 -97.4351487031414)"><path d="M0.92 -170.56 C-1.18 -177.52, -4.07 -181.34, -9.85 -195.42 M0.83 -171.69 C-2.63 -179.66, -5.25 -188.07, -8.58 -194.94" stroke="#1e1e1e" stroke-width="2" fill="none"></path></g><g transform="translate(1241.6474143521896 661.7777841356067) rotate(0 -3.852091275050384 -97.4351487031414)"><path d="M-16.16 -169.8 C-14.19 -177.03, -13 -181.02, -9.85 -195.42 M-16.25 -170.94 C-13.86 -179.04, -10.61 -187.71, -8.58 -194.94" stroke="#1e1e1e" stroke-width="2" fill="none"></path></g></g><mask></mask><g stroke-linecap="round"><g transform="translate(1190.7729515258438 305.33333969116205) rotate(0 88.24387174018318 -77.51336089964667)"><path d="M2.34 0.74 C31.51 -25.3, 146.93 -129.49, 176.32 -155.76 M0.16 -1.33 C28.87 -26.94, 144.52 -126.68, 174.21 -152.19" stroke="#1e1e1e" stroke-width="2" fill="none"></path></g><g transform="translate(1190.7729515258438 305.33333969116205) rotate(0 88.24387174018318 -77.51336089964667)"><path d="M162.52 -130.21 C166.11 -136.16, 169.54 -145.66, 175.08 -151.66 M162.12 -129.81 C165.53 -135.36, 167.93 -140.05, 173.31 -152.49" stroke="#1e1e1e" stroke-width="2" fill="none"></path></g><g transform="translate(1190.7729515258438 305.33333969116205) rotate(0 88.24387174018318 -77.51336089964667)"><path d="M151.36 -143.17 C158.82 -144.74, 166.11 -149.75, 175.08 -151.66 M150.95 -142.77 C156.95 -145.41, 161.91 -147.14, 173.31 -152.49" stroke="#1e1e1e" stroke-width="2" fill="none"></path></g></g><mask></mask><g stroke-linecap="round"><g transform="translate(1327.9847955083592 92.48720010371926) rotate(0 -57.24318413458036 -0.9610073717697105)"><path d="M0.23 -0.11 C-19.14 -0.61, -94.41 -2.32, -113.89 -2.27 M-3.08 -2.63 C-22.81 -2.83, -95.48 1.04, -114.72 0.7" stroke="#1e1e1e" stroke-width="2" fill="none"></path></g><g transform="translate(1327.9847955083592 92.48720010371926) rotate(0 -57.24318413458036 -0.9610073717697105)"><path d="M-91.49 -6.49 C-101.2 -4.96, -108.4 -0.86, -116.15 1.17 M-90.62 -8.27 C-99.24 -4.64, -108.77 -2.12, -115.03 0.24" stroke="#1e1e1e" stroke-width="2" fill="none"></path></g><g transform="translate(1327.9847955083592 92.48720010371926) rotate(0 -57.24318413458036 -0.9610073717697105)"><path d="M-91.13 10.61 C-101.02 5.58, -108.36 3.13, -116.15 1.17 M-90.27 8.83 C-99.03 6.41, -108.69 2.9, -115.03 0.24" stroke="#1e1e1e" stroke-width="2" fill="none"></path></g></g><mask></mask><g transform="translate(194.91446842525954 890.4104779805305) rotate(0 169.2178955078125 17.5)"><text x="0" y="24.528" font-family="Virgil, Segoe UI Emoji" font-size="28px" fill="#1e1e1e" text-anchor="start" style="white-space: pre;" direction="ltr" dominant-baseline="alphabetic">swiftide indexing pipeline</text></g><g stroke-linecap="round" transform="translate(51.11111111111086 287.00000635782874) rotate(0 349.78417266187046 294.66666666666663)"><path d="M32 0 C282.31 0.69, 530.09 0.64, 667.57 0 M667.57 0 C691.04 0.48, 701.83 13.81, 699.57 32 M699.57 32 C699.81 193.04, 700.75 354.29, 699.57 557.33 M699.57 557.33 C700.88 582.35, 685.76 592.27, 667.57 589.33 M667.57 589.33 C523.37 594.42, 378.19 592.45, 32 589.33 M32 589.33 C6.94 588.87, -1.3 576.21, 0 557.33 M0 557.33 C1.27 358.86, 3.2 161.91, 0 32 M0 32 C-2.1 8.36, 11.52 -2.02, 32 0" stroke="#1e1e1e" stroke-width="2.5" fill="none" stroke-dasharray="8 10"></path></g><g stroke-linecap="round" transform="translate(778.333333333333 284.33333969116217) rotate(0 374.2777777777778 290.99999999999994)"><path d="M32 0 C232.68 -1.09, 436.5 -1.28, 716.56 0 M716.56 0 C740.15 3.15, 748.85 12.27, 748.56 32 M748.56 32 C744.33 206.1, 745.35 383.14, 748.56 550 M748.56 550 C745.42 574.27, 735.01 582.23, 716.56 582 M716.56 582 C452.27 583.03, 185.54 584.14, 32 582 M32 582 C9.36 579.54, 3.06 569.07, 0 550 M0 550 C3.69 444.14, 2.02 336.93, 0 32 M0 32 C0.86 8.64, 6.87 0, 32 0" stroke="#1e1e1e" stroke-width="2.5" fill="none" stroke-dasharray="8 10"></path></g><g transform="translate(991.333333333333 890.0000063578289) rotate(0 199.20587158203125 17.5)"><text x="0" y="24.528" font-family="Virgil, Segoe UI Emoji" font-size="28px" fill="#1e1e1e" text-anchor="start" style="white-space: pre;" direction="ltr" dominant-baseline="alphabetic">swiftide query pipeline</text></g><g transform="translate(19.888888888888573 144.55555937025278) rotate(0 278.4058837890625 22.5)"><text x="0" y="31.536" font-family="Virgil, Segoe UI Emoji" font-size="36px" fill="#1e1e1e" text-anchor="start" style="white-space: pre;" direction="ltr" dominant-baseline="alphabetic">Retrieval augmented generation</text></g><g transform="translate(1256.333333333333 479.3333358764648) rotate(0 129.639892578125 37.5)"><text x="0" y="17.52" font-family="Virgil, Segoe UI Emoji" font-size="20px" fill="#1e1e1e" text-anchor="start" style="white-space: pre;" direction="ltr" dominant-baseline="alphabetic">generate an effective</text><text x="0" y="42.519999999999996" font-family="Virgil, Segoe UI Emoji" font-size="20px" fill="#1e1e1e" text-anchor="start" style="white-space: pre;" direction="ltr" dominant-baseline="alphabetic">context to answer original</text><text x="0" y="67.52" font-family="Virgil, Segoe UI Emoji" font-size="20px" fill="#1e1e1e" text-anchor="start" style="white-space: pre;" direction="ltr" dominant-baseline="alphabetic">question</text></g><g transform="translate(825.6666666666665 675.8888914320205) rotate(0 71.97993469238281 12.5)"><text x="0" y="17.52" font-family="Virgil, Segoe UI Emoji" font-size="20px" fill="#1e1e1e" text-anchor="start" style="white-space: pre;" direction="ltr" dominant-baseline="alphabetic">query for docs</text></g><g transform="translate(820.222222222222 791.8888914320203) rotate(0 86.65992736816406 12.5)"><text x="0" y="17.52" font-family="Virgil, Segoe UI Emoji" font-size="20px" fill="#1e1e1e" text-anchor="start" style="white-space: pre;" direction="ltr" dominant-baseline="alphabetic">filter, rerank, etc</text></g><g stroke-linecap="round"><g transform="translate(1057.6706336490683 368.65476911030106) rotate(0 -62.19987655786997 -82.68576938932142)"><path d="M-0.87 -1.28 C-21.04 -28.49, -102.57 -136.87, -123.53 -164.09" stroke="#ffffff" stroke-width="2.5" fill="none" stroke-dasharray="1.5 8"></path></g><g transform="translate(1057.6706336490683 368.65476911030106) rotate(0 -62.19987655786997 -82.68576938932142)"><path d="M-103.42 -149.9 C-105.04 -155.03, -109.83 -157.74, -123.41 -162.36" stroke="#ffffff" stroke-width="2.5" fill="none" stroke-dasharray="1.5 6"></path></g><g transform="translate(1057.6706336490683 368.65476911030106) rotate(0 -62.19987655786997 -82.68576938932142)"><path d="M-117.04 -139.56 C-115.77 -146.82, -117.7 -151.7, -123.41 -162.36" stroke="#ffffff" stroke-width="2.5" fill="none" stroke-dasharray="1.5 6"></path></g></g><mask></mask><g stroke-linecap="round"><g transform="translate(1053.226189204624 357.54365799919) rotate(0 -97.30752526695517 -112.1299389768806)"><path d="M0.92 2.58 C-31.53 -35.02, -162.82 -188.28, -195.53 -226.84" stroke="#ffffff" stroke-width="2.5" fill="none" stroke-dasharray="1.5 8"></path></g><g transform="translate(1053.226189204624 357.54365799919) rotate(0 -97.30752526695517 -112.1299389768806)"><path d="M-171.94 -216.08 C-178.1 -219.2, -185.3 -219.33, -194.62 -225.99" stroke="#ffffff" stroke-width="2.5" fill="none" stroke-dasharray="1.5 6"></path></g><g transform="translate(1053.226189204624 357.54365799919) rotate(0 -97.30752526695517 -112.1299389768806)"><path d="M-184.95 -204.98 C-187.56 -211.12, -191.27 -214.25, -194.62 -225.99" stroke="#ffffff" stroke-width="2.5" fill="none" stroke-dasharray="1.5 6"></path></g></g><mask></mask><g stroke-linecap="round"><g transform="translate(1058.7817447601794 358.65476911030106) rotate(0 -68.21768633565966 -81.6704419621991)"><path d="M-2.2 2.05 C-24.72 -25.94, -112.97 -137.67, -134.24 -165.39" stroke="#ffffff" stroke-width="2.5" fill="none" stroke-dasharray="1.5 8"></path></g><g transform="translate(1058.7817447601794 358.65476911030106) rotate(0 -68.21768633565966 -81.6704419621991)"><path d="M-111.58 -153.58 C-120.1 -154.98, -126.35 -160.28, -133.64 -167.01" stroke="#ffffff" stroke-width="2.5" fill="none" stroke-dasharray="1.5 6"></path></g><g transform="translate(1058.7817447601794 358.65476911030106) rotate(0 -68.21768633565966 -81.6704419621991)"><path d="M-125.06 -143.05 C-129.19 -147.85, -130.96 -156.65, -133.64 -167.01" stroke="#ffffff" stroke-width="2.5" fill="none" stroke-dasharray="1.5 6"></path></g></g><mask></mask><g stroke-linecap="round"><g transform="translate(978.7817447601794 466.43254688807883) rotate(0 -46.90451397911568 -149.8345054503116)"><path d="M-2.02 0.16 C-16.95 -50.15, -76.62 -249.76, -91.79 -299.83" stroke="#1e1e1e" stroke-width="2.5" fill="none" stroke-dasharray="8 10"></path></g><g transform="translate(978.7817447601794 466.43254688807883) rotate(0 -46.90451397911568 -149.8345054503116)"><path d="M-16.3 5.76 C-12.55 4.25, -9.6 1.44, -3.41 -0.01" stroke="#1e1e1e" stroke-width="2.5" fill="none"></path></g><g transform="translate(978.7817447601794 466.43254688807883) rotate(0 -46.90451397911568 -149.8345054503116)"><path d="M12.44 -2.83 C9.89 -2.65, 6.47 -3.55, -3.41 -0.01" stroke="#1e1e1e" stroke-width="2.5" fill="none"></path></g><g transform="translate(978.7817447601794 466.43254688807883) rotate(0 -46.90451397911568 -149.8345054503116)"><path d="M-76.73 -278.06 C-79.39 -283.49, -83.01 -290.4, -93.66 -300.06" stroke="#1e1e1e" stroke-width="2.5" fill="none"></path></g><g transform="translate(978.7817447601794 466.43254688807883) rotate(0 -46.90451397911568 -149.8345054503116)"><path d="M-93.1 -273.14 C-92.17 -279.54, -92.17 -287.54, -93.66 -300.06" stroke="#1e1e1e" stroke-width="2.5" fill="none"></path></g></g><mask></mask><g stroke-linecap="round" transform="translate(653.2261892046238 21.988110920739643) rotate(0 135 66.66666666666663)"><path d="M32 0 C80.6 -1.67, 127.02 -6.06, 238 0 M32 0 C73.53 2.56, 116.23 -0.5, 238 0 M238 0 C256.57 -1.64, 272.06 11.21, 270 32 M238 0 C256.92 -2.65, 270.98 8.34, 270 32 M270 32 C272.1 45.67, 273.56 60.9, 270 101.33 M270 32 C272.11 47.99, 270.11 64.52, 270 101.33 M270 101.33 C273.99 123.92, 258.62 136.64, 238 133.33 M270 101.33 C270.61 126.87, 263.77 131.37, 238 133.33 M238 133.33 C192.94 137.8, 148.84 133.2, 32 133.33 M238 133.33 C191.45 129.75, 145.94 130.28, 32 133.33 M32 133.33 C12.8 135.21, -1.71 122, 0 101.33 M32 133.33 C14.87 129.54, -0.93 123.85, 0 101.33 M0 101.33 C-1.28 72.35, 4.06 45.83, 0 32 M0 101.33 C-0.5 72.23, -0.5 47.25, 0 32 M0 32 C0.92 7.12, 8.1 -3.39, 32 0 M0 32 C-1.13 6.42, 10.91 -3.55, 32 0" stroke="#1e1e1e" stroke-width="2" fill="none"></path></g><g transform="translate(679.5562749590183 63.65477758740627) rotate(0 108.66991424560547 25)"><text x="108.66991424560547" y="17.52" font-family="Virgil, Segoe UI Emoji" font-size="20px" fill="#1e1e1e" text-anchor="middle" style="white-space: pre;" direction="ltr" dominant-baseline="alphabetic">RAG Evaluation</text><text x="108.66991424560547" y="42.519999999999996" font-family="Virgil, Segoe UI Emoji" font-size="20px" fill="#1e1e1e" text-anchor="middle" style="white-space: pre;" direction="ltr" dominant-baseline="alphabetic">(Ragas, truelens, etc)</text></g><g transform="translate(911.4444444444441 533.0000025431316) rotate(0 79.8199234008789 25)"><text x="0" y="17.52" font-family="Virgil, Segoe UI Emoji" font-size="20px" fill="#1e1e1e" text-anchor="start" style="white-space: pre;" direction="ltr" dominant-baseline="alphabetic">generate for an</text><text x="0" y="42.519999999999996" font-family="Virgil, Segoe UI Emoji" font-size="20px" fill="#1e1e1e" text-anchor="start" style="white-space: pre;" direction="ltr" dominant-baseline="alphabetic"> effective query</text></g><g stroke-linecap="round" transform="translate(96.5754811233669 544.6419687331013) rotate(0 49.228883559818826 38.21715960564882)"><path d="M19.11 0 C36.02 0.51, 59.07 -1.48, 79.35 0 M19.11 0 C40.41 0.33, 65.51 1.42, 79.35 0 M79.35 0 C89.99 -2.3, 99.31 4.35, 98.46 19.11 M79.35 0 C87.72 0, 95.15 8.78, 98.46 19.11 M98.46 19.11 C97.03 31.63, 97.18 44.13, 98.46 57.33 M98.46 19.11 C100.29 29, 97.94 39.29, 98.46 57.33 M98.46 57.33 C98.98 73.72, 95.95 74.73, 79.35 76.43 M98.46 57.33 C94.84 73.97, 93.54 77.14, 79.35 76.43 M79.35 76.43 C52.49 74.48, 29.65 73.4, 19.11 76.43 M79.35 76.43 C67.15 76.77, 51.97 75.5, 19.11 76.43 M19.11 76.43 C10.02 73.14, -0.81 71.09, 0 57.33 M19.11 76.43 C10.42 73.35, 4.25 67.52, 0 57.33 M0 57.33 C3.14 49.5, -3.65 38.5, 0 19.11 M0 57.33 C0.43 47.59, -1.31 39.7, 0 19.11 M0 19.11 C-0.98 2.68, 6.58 -3.09, 19.11 0 M0 19.11 C-0.65 5.8, 8.42 -2.16, 19.11 0" stroke="#1e1e1e" stroke-width="2" fill="none"></path></g><g transform="translate(124.05283880427947 569.6097278591337) rotate(0 21.75152587890622 13.249400479616298)"><text x="21.75152587890625" y="18.570359712230214" font-family="Virgil, Segoe UI Emoji" font-size="21.199040767386087px" fill="#1e1e1e" text-anchor="middle" style="white-space: pre;" direction="ltr" dominant-baseline="alphabetic">load</text></g><g stroke-linecap="round" transform="translate(264.4012205318397 567.5409828551374) rotate(0 51.58433253397288 38.21715960564882)"><path d="M19.11 0 C32.04 -2.3, 50.63 -2.11, 84.06 0 M19.11 0 C33.44 0.81, 44.66 -0.62, 84.06 0 M84.06 0 C97.66 -2.02, 99.37 6.37, 103.17 19.11 M84.06 0 C93.49 2.41, 102.54 10.46, 103.17 19.11 M103.17 19.11 C100.81 34.15, 100.46 42.06, 103.17 57.33 M103.17 19.11 C103.58 28.87, 104.19 37.15, 103.17 57.33 M103.17 57.33 C107.03 68.36, 93.66 79.83, 84.06 76.43 M103.17 57.33 C104.62 70.77, 101.08 79.1, 84.06 76.43 M84.06 76.43 C64.58 73.35, 46.6 73.07, 19.11 76.43 M84.06 76.43 C66.98 76.71, 53.43 75.4, 19.11 76.43 M19.11 76.43 C5.56 77.46, 3.52 67.38, 0 57.33 M19.11 76.43 C10.62 73.89, -2.39 73.67, 0 57.33 M0 57.33 C-3.77 47.61, -4.38 37.76, 0 19.11 M0 57.33 C-1.46 43.28, -0.66 30.78, 0 19.11 M0 19.11 C0.21 3.28, 5.81 -0.5, 19.11 0 M0 19.11 C2.05 4.21, 3.81 -3.42, 19.11 0" stroke="#1e1e1e" stroke-width="2" fill="none"></path></g><g transform="translate(287.81346444276573 592.5087419811698) rotate(0 28.172088623046875 13.249400479616298)"><text x="28.172088623046875" y="18.570359712230214" font-family="Virgil, Segoe UI Emoji" font-size="21.199040767386087px" fill="#1e1e1e" text-anchor="middle" style="white-space: pre;" direction="ltr" dominant-baseline="alphabetic">enrich</text></g><g stroke-linecap="round" transform="translate(345.66421014015293 679.4248091274527) rotate(0 58.06181721289636 35.92059685584857)"><path d="M17.96 0 C44.15 -1.27, 60.41 -1.78, 98.16 0 M17.96 0 C37.67 -1.37, 59.92 -1.23, 98.16 0 M98.16 0 C106.34 0, 113.24 8.09, 116.12 17.96 M98.16 0 C109.51 4.1, 116.66 3.56, 116.12 17.96 M116.12 17.96 C113.47 29.29, 112.25 46.34, 116.12 53.88 M116.12 17.96 C116.26 31.69, 117.93 40.9, 116.12 53.88 M116.12 53.88 C112.98 69.25, 111.4 72.46, 98.16 71.84 M116.12 53.88 C120.4 68.52, 108.47 68.18, 98.16 71.84 M98.16 71.84 C73.95 67.93, 54.13 72.93, 17.96 71.84 M98.16 71.84 C72.16 69.93, 42.1 72.09, 17.96 71.84 M17.96 71.84 C9.51 69.16, 3.7 63.64, 0 53.88 M17.96 71.84 C3.6 75.44, -1.94 70.15, 0 53.88 M0 53.88 C-3.11 41.76, 1.47 30.29, 0 17.96 M0 53.88 C-0.03 44.44, 0.57 37.16, 0 17.96 M0 17.96 C-0.56 5.49, 7.77 -1.88, 17.96 0 M0 17.96 C-2.56 2.56, 3.78 4.5, 17.96 0" stroke="#1e1e1e" stroke-width="2" fill="none"></path></g><g transform="translate(353.13492475295163 702.096005503685) rotate(0 50.591102600097656 13.249400479616298)"><text x="50.591102600097656" y="18.570359712230214" font-family="Virgil, Segoe UI Emoji" font-size="21.199040767386087px" fill="#1e1e1e" text-anchor="middle" style="white-space: pre;" direction="ltr" dominant-baseline="alphabetic">transform</text></g><g stroke-linecap="round" transform="translate(403.2155024396467 486.1847345204717) rotate(0 56.8840927258193 34.683986144417815)"><path d="M17.34 0 C32.4 -1.87, 53.44 2.95, 96.43 0 M17.34 0 C42.57 -0.1, 65.04 0.91, 96.43 0 M96.43 0 C105.11 2.1, 113.22 9.34, 113.77 17.34 M96.43 0 C108.52 -2.43, 115.58 3.53, 113.77 17.34 M113.77 17.34 C109.85 34.46, 114.62 42.88, 113.77 52.03 M113.77 17.34 C115.79 29.76, 112.29 45.58, 113.77 52.03 M113.77 52.03 C115.03 64.2, 111.71 71.68, 96.43 69.37 M113.77 52.03 C112.1 59.92, 106.24 66.66, 96.43 69.37 M96.43 69.37 C75.82 70.36, 61.11 66.52, 17.34 69.37 M96.43 69.37 C73.61 68.58, 53.36 66.72, 17.34 69.37 M17.34 69.37 C9.48 67.16, -2.08 66.72, 0 52.03 M17.34 69.37 C3.84 73.66, 1.9 60.08, 0 52.03 M0 52.03 C1.56 42.42, -2.91 28.41, 0 17.34 M0 52.03 C0.28 43.02, -0.11 36.85, 0 17.34 M0 17.34 C1.79 3.91, 3.56 -2.98, 17.34 0 M0 17.34 C-2.21 10.28, 1.51 -0.9, 17.34 0" stroke="#1e1e1e" stroke-width="2" fill="none"></path></g><g transform="translate(430.391228771423 507.6193201852732) rotate(0 29.70836639404297 13.249400479616313)"><text x="29.70836639404297" y="18.570359712230214" font-family="Virgil, Segoe UI Emoji" font-size="21.199040767386087px" fill="#1e1e1e" text-anchor="middle" style="white-space: pre;" direction="ltr" dominant-baseline="alphabetic">embed</text></g><g stroke-linecap="round" transform="translate(160.7614656690631 672.9473244485293) rotate(0 51.58433253397288 38.21715960564882)"><path d="M19.11 0 C33.28 2.96, 51.29 -1.2, 84.06 0 M19.11 0 C32.96 0.66, 49.16 1.71, 84.06 0 M84.06 0 C96.25 3.56, 103.63 4.26, 103.17 19.11 M84.06 0 C98.62 -2.25, 106.77 3.72, 103.17 19.11 M103.17 19.11 C103.75 29.04, 105.8 40.91, 103.17 57.33 M103.17 19.11 C102.33 35.77, 104.54 49.33, 103.17 57.33 M103.17 57.33 C106.89 72.38, 95.35 73.25, 84.06 76.43 M103.17 57.33 C101.42 67.36, 93.82 72.76, 84.06 76.43 M84.06 76.43 C71.11 75.41, 53.74 80.78, 19.11 76.43 M84.06 76.43 C71.69 75.42, 57.65 75.66, 19.11 76.43 M19.11 76.43 C4.29 79.57, -1.69 73.8, 0 57.33 M19.11 76.43 C8.27 72.92, 0.16 65.85, 0 57.33 M0 57.33 C-3.73 43.16, -3.57 33.16, 0 19.11 M0 57.33 C-0.32 49.14, 0.85 40.52, 0 19.11 M0 19.11 C-2.22 3.39, 4.45 3.91, 19.11 0 M0 19.11 C-4.27 5.47, 10.56 1.52, 19.11 0" stroke="#1e1e1e" stroke-width="2" fill="none"></path></g><g transform="translate(185.66760606436412 697.9150835745618) rotate(0 26.678192138671875 13.249400479616298)"><text x="26.678192138671875" y="18.570359712230214" font-family="Virgil, Segoe UI Emoji" font-size="21.199040767386087px" fill="#1e1e1e" text-anchor="middle" style="white-space: pre;" direction="ltr" dominant-baseline="alphabetic">chunk</text></g><g stroke-linecap="round" transform="translate(559.9994086480133 414.30357278319474) rotate(0 56.8840927258193 34.683986144417815)"><path d="M17.34 0 C36.15 -2.92, 51.57 0.04, 96.43 0 M17.34 0 C35.63 1.05, 56.52 1.78, 96.43 0 M96.43 0 C108.45 -2.11, 115.35 3.82, 113.77 17.34 M96.43 0 C111.59 -2.65, 112.77 1.74, 113.77 17.34 M113.77 17.34 C117.29 31.74, 117.64 48.93, 113.77 52.03 M113.77 17.34 C113.85 26.57, 115.08 36.35, 113.77 52.03 M113.77 52.03 C112.32 60.4, 106.47 67.01, 96.43 69.37 M113.77 52.03 C110.78 59.91, 104.69 67.06, 96.43 69.37 M96.43 69.37 C67.82 72.34, 37.25 67.88, 17.34 69.37 M96.43 69.37 C72.52 67.2, 43.88 69.87, 17.34 69.37 M17.34 69.37 C4.09 73.1, 1.65 60.54, 0 52.03 M17.34 69.37 C5.94 65.16, 0.15 64.65, 0 52.03 M0 52.03 C-2.78 39.85, -3.08 29.84, 0 17.34 M0 52.03 C0.99 43.36, -1.01 35.08, 0 17.34 M0 17.34 C-1.92 9.7, 2.06 -0.78, 17.34 0 M0 17.34 C4.19 7.3, 10.18 4.39, 17.34 0" stroke="#1e1e1e" stroke-width="2" fill="none"></path></g><g transform="translate(581.4962256780318 435.7381584479962) rotate(0 35.38727569580078 13.249400479616305)"><text x="35.38727569580078" y="18.570359712230214" font-family="Virgil, Segoe UI Emoji" font-size="21.199040767386087px" fill="#1e1e1e" text-anchor="middle" style="white-space: pre;" direction="ltr" dominant-baseline="alphabetic">persist</text></g><g stroke-linecap="round"><g transform="translate(151.00396698240172 514.210320427304) rotate(0 -1.2825988035222906 12.738234509101872)"><path d="M-0.63 -0.69 C-1.23 3.44, -2.37 20.57, -2.99 24.95 M1.24 1.56 C0.45 5.83, -3.25 21.95, -3.8 26.17" stroke="#1e1e1e" stroke-width="2" fill="none"></path></g><g transform="translate(151.00396698240172 514.210320427304) rotate(0 -1.2825988035222906 12.738234509101872)"><path d="M-6.66 13.74 C-5.81 16.72, -4.42 21.48, -3.13 25.99 M-5.67 13.15 C-4.58 18.04, -4.4 22.79, -3.16 26.37" stroke="#1e1e1e" stroke-width="2" fill="none"></path></g><g transform="translate(151.00396698240172 514.210320427304) rotate(0 -1.2825988035222906 12.738234509101872)"><path d="M2 15.35 C-0.2 17.72, -1.85 21.91, -3.13 25.99 M2.99 14.76 C0.71 18.98, -2.48 23.1, -3.16 26.37" stroke="#1e1e1e" stroke-width="2" fill="none"></path></g></g><mask></mask><g stroke-linecap="round"><g transform="translate(167.1963204533198 629.7658759828596) rotate(0 13.569385362560524 18.329614478333127)"><path d="M0.6 -1.42 C4.96 4.59, 20.58 28.22, 24.7 34.45 M-2.52 3.99 C2.8 10.62, 24.06 33.54, 29.66 38.08" stroke="#1e1e1e" stroke-width="2" fill="none"></path></g><g transform="translate(167.1963204533198 629.7658759828596) rotate(0 13.569385362560524 18.329614478333127)"><path d="M8.54 27.25 C14.48 29.88, 20.5 33.25, 31.44 38.31 M10.34 28.58 C14.34 30.58, 20.53 33.97, 29.48 38.9" stroke="#1e1e1e" stroke-width="2" fill="none"></path></g><g transform="translate(167.1963204533198 629.7658759828596) rotate(0 13.569385362560524 18.329614478333127)"><path d="M18.98 16.42 C22.27 21.75, 25.71 27.8, 31.44 38.31 M20.78 17.74 C22.24 22.37, 25.85 28.45, 29.48 38.9" stroke="#1e1e1e" stroke-width="2" fill="none"></path></g></g><mask></mask><g stroke-linecap="round"><g transform="translate(247.67063364906846 666.4325426495263) rotate(0 14.760809731897382 -9.148987137095787)"><path d="M-2.66 0 C1.72 -2.11, 21.68 -11.91, 26.87 -14.09 M1.09 -2.47 C6.3 -5.27, 27.95 -15.84, 32.18 -18.3" stroke="#1e1e1e" stroke-width="2" fill="none"></path></g><g transform="translate(247.67063364906846 666.4325426495263) rotate(0 14.760809731897382 -9.148987137095787)"><path d="M21.12 -7.36 C25.6 -10.19, 29.75 -13.67, 31.31 -17.65 M20.94 -6.9 C24.62 -8.9, 26.43 -11.52, 32.29 -17.55" stroke="#1e1e1e" stroke-width="2" fill="none"></path></g><g transform="translate(247.67063364906846 666.4325426495263) rotate(0 14.760809731897382 -9.148987137095787)"><path d="M15.92 -17.3 C22.02 -16.89, 27.84 -17.18, 31.31 -17.65 M15.74 -16.84 C20.8 -16.32, 23.92 -16.44, 32.29 -17.55" stroke="#1e1e1e" stroke-width="2" fill="none"></path></g></g><mask></mask><g stroke-linecap="round"><g transform="translate(347.67063364906846 655.3214315384153) rotate(0 13.245040683862157 11.701340579572644)"><path d="M-2.02 1.47 C3.18 5.4, 23.3 20.58, 28.51 23.6 M2.08 -0.2 C7.11 3, 21.81 16.26, 26.06 19.95" stroke="#1e1e1e" stroke-width="2" fill="none"></path></g><g transform="translate(347.67063364906846 655.3214315384153) rotate(0 13.245040683862157 11.701340579572644)"><path d="M10.34 13.18 C14.41 15.09, 15.29 16.93, 25.18 21.35 M10.29 13.71 C13.27 15.89, 17.58 17.55, 26.92 19.56" stroke="#1e1e1e" stroke-width="2" fill="none"></path></g><g transform="translate(347.67063364906846 655.3214315384153) rotate(0 13.245040683862157 11.701340579572644)"><path d="M18.43 4 C20.84 7.73, 20.06 11.45, 25.18 21.35 M18.38 4.52 C19.37 8.86, 21.73 12.75, 26.92 19.56" stroke="#1e1e1e" stroke-width="2" fill="none"></path></g></g><mask></mask><g stroke-linecap="round"><g transform="translate(390.71810675036045 669.7658759828596) rotate(0 22.906940676005036 -56.099656705386295)"><path d="M-0.38 2.49 C8.26 -16.87, 41.35 -95.18, 49.85 -114.69 M-4.03 1.38 C4.45 -17.77, 38.88 -92.93, 47.79 -111.87" stroke="#1e1e1e" stroke-width="2" fill="none"></path></g><g transform="translate(390.71810675036045 669.7658759828596) rotate(0 22.906940676005036 -56.099656705386295)"><path d="M47.45 -86.72 C44.97 -91.84, 45.53 -96.74, 46.63 -112.3 M45.5 -86.13 C46.01 -91.33, 47.29 -97.95, 47 -111.02" stroke="#1e1e1e" stroke-width="2" fill="none"></path></g><g transform="translate(390.71810675036045 669.7658759828596) rotate(0 22.906940676005036 -56.099656705386295)"><path d="M31.94 -93.91 C33.03 -97.37, 37.12 -100.63, 46.63 -112.3 M29.98 -93.32 C33.85 -97.04, 38.42 -102.14, 47 -111.02" stroke="#1e1e1e" stroke-width="2" fill="none"></path></g></g><mask></mask><g stroke-linecap="round"><g transform="translate(524.5301903981708 502.10404909202265) rotate(0 16.29804286642991 -2.6118953403641996)"><path d="M0.14 -0.63 C5.81 -1.96, 28.15 -5.81, 33.84 -6.87 M-1.25 1.65 C4.32 0.99, 27.26 -4.36, 33.14 -5.64" stroke="#1e1e1e" stroke-width="2" fill="none"></path></g><g transform="translate(524.5301903981708 502.10404909202265) rotate(0 16.29804286642991 -2.6118953403641996)"><path d="M17.95 4.19 C22.03 2.21, 25.98 -2.11, 31.65 -3.95 M18.96 4.3 C24.42 0, 27.67 -1.95, 33.41 -5.51" stroke="#1e1e1e" stroke-width="2" fill="none"></path></g><g transform="translate(524.5301903981708 502.10404909202265) rotate(0 16.29804286642991 -2.6118953403641996)"><path d="M15.41 -7.14 C20.31 -5.88, 24.99 -6.96, 31.65 -3.95 M16.42 -7.04 C22.7 -7.59, 26.79 -5.79, 33.41 -5.51" stroke="#1e1e1e" stroke-width="2" fill="none"></path></g></g><mask></mask><g stroke-linecap="round"><g transform="translate(600.4265188303652 492.65368631680985) rotate(0 4.311506072073428 72.992949779588)"><path d="M1.11 -1.37 C2.78 22.98, 9.29 120.42, 10.36 144.6 M-1.74 4.06 C-0.27 28.87, 8.12 123.78, 9.31 147.36" stroke="#1e1e1e" stroke-width="2" fill="none"></path></g><g transform="translate(600.4265188303652 492.65368631680985) rotate(0 4.311506072073428 72.992949779588)"><path d="M-1.88 126.11 C1.01 131.18, 3.59 140.72, 9.94 147 M0.07 124.11 C2.25 134.02, 7.26 142.06, 10.24 147.94" stroke="#1e1e1e" stroke-width="2" fill="none"></path></g><g transform="translate(600.4265188303652 492.65368631680985) rotate(0 4.311506072073428 72.992949779588)"><path d="M15.18 124.88 C12.75 130.4, 10.01 140.32, 9.94 147 M17.12 122.88 C12.79 133.42, 11.27 141.93, 10.24 147.94" stroke="#1e1e1e" stroke-width="2" fill="none"></path></g></g><mask></mask></svg>
